<?xml version="1.0" encoding="UTF-8" standalone="no"?>
<!DOCTYPE svg PUBLIC "-//W3C//DTD SVG 1.1//EN" "http://www.w3.org/Graphics/SVG/1.1/DTD/svg11.dtd">
<!-- Created with Vectornator (http://vectornator.io/) -->
<svg height="100%" stroke-miterlimit="10" style="fill-rule:nonzero;clip-rule:evenodd;stroke-linecap:round;stroke-linejoin:round;" version="1.1" viewBox="0 0 1024 1024" width="100%" xml:space="preserve" xmlns="http://www.w3.org/2000/svg" xmlns:vectornator="http://vectornator.io" xmlns:xlink="http://www.w3.org/1999/xlink">
<defs/>
<g id="hachiko" vectornator:layerName="hachiko">
<path d="M199.328 508.543C199.444 498.371 200.841 488.742 202.213 478.675C207.873 437.165 221.716 396.511 243.105 360.46C248.03 352.157 253.969 344.274 259.607 336.441C267.957 324.839 276.904 313.016 286.952 302.824C286.986 325.296 286.068 505.369 287.544 508.378L199.328 508.543Z" fill="#fec5c4" fill-rule="nonzero" opacity="1" stroke="none" vectornator:layerName="path"/>
<path d="M736.99 302.32C739.268 303.534 740.576 305.544 742.187 307.491L749.87 316.956C778.233 351.517 798.93 389.417 812.027 432.189C816.415 446.519 819.455 460.787 821.736 475.581C823.389 486.301 824.757 497.656 824.69 508.49L736.481 508.405C734.403 506.957 732.432 504.619 730.607 502.826C732.555 502.86 734.098 502.787 735.992 502.272L736.82 499.124L736.99 302.32Z" fill="#fec5c4" fill-rule="nonzero" opacity="1" stroke="none" vectornator:layerName="path"/>
<path d="M730.607 502.826C732.555 502.86 734.098 502.787 735.992 502.272L736.82 499.124C736.83 501.727 737.398 506.071 736.481 508.405C734.403 506.957 732.432 504.619 730.607 502.826Z" fill="#3c4950" fill-rule="nonzero" opacity="1" stroke="none" vectornator:layerName="path"/>
<path d="M199.328 508.543L287.544 508.378L287.29 584.93L286.85 750.571L284.928 749.007C281.034 745.292 277.802 740.688 274.253 736.628C260.106 720.442 248.638 702.854 238.502 683.925C218.922 647.36 206.068 607.255 201.219 566.015C198.949 546.709 199.336 527.913 199.328 508.543Z" fill="#dfe7db" fill-rule="nonzero" opacity="1" stroke="none" vectornator:layerName="path"/>
<path d="M736.481 508.405L824.69 508.49C824.656 528.368 824.789 548.156 822.358 567.941C820.095 586.356 816.001 604.556 810.742 622.326C805.822 638.951 800.189 655.378 792.647 671.033C785.966 684.903 777.886 698.04 769.356 710.815C760.681 723.809 751.22 736.772 740.206 747.931C739.33 748.818 738.747 749.22 737.485 749.289L736.898 749.284L736.871 584.796C735.85 576.199 736.44 566.972 736.463 558.316L736.481 508.405Z" fill="#dfe7db" fill-rule="nonzero" opacity="1" stroke="none" vectornator:layerName="path"/>
<path d="M287.29 584.93C291.847 581.405 296.335 578.188 301.745 576.076C309.576 579.689 316.878 588.404 323.181 594.365L363.572 632.085L378.242 645.46C380.755 647.735 383.33 650.615 386.135 652.494C388.73 654.232 392.723 655.34 395.658 656.545L411.492 663.445L512.387 706.359L512.856 706.109C522.788 700.92 534.301 697.487 544.666 693.124L615.058 662.982L630.044 656.543C632.178 655.687 634.901 655.262 636.782 653.941C638.8 652.524 640.567 650.413 642.357 648.709L654.169 637.467L697.606 596.762C704.721 590.155 712.071 582.053 720.063 576.659L721.25 575.838C727.186 578.071 731.576 581.469 736.871 584.796L736.898 749.284C735.43 755.017 726.56 761.902 722.252 765.903C702.706 784.052 682.003 801.775 658.992 815.44C592.644 854.843 515.72 865.358 441.161 846.281C389.469 833.054 344.42 805.896 305.817 769.544L293.156 757.461C291.103 755.439 288.583 753.337 287.035 750.894L286.85 750.571L287.29 584.93Z" fill="#345054" fill-rule="nonzero" opacity="1" stroke="none" vectornator:layerName="path"/>
<path d="M483.555 731.408L505.121 740.431C507.407 741.359 510.565 743.151 512.944 743.208L541.918 731.089L613.146 802.249C602.427 806.67 591.689 810.943 580.51 814.089C537.408 826.222 492.575 826.277 449.294 815.056C436.779 811.811 424.422 807.189 412.455 802.319C416.101 799.8 419.264 796.064 422.353 792.889L438.031 776.867L483.555 731.408Z" fill="#fef4e3" fill-rule="nonzero" opacity="1" stroke="none" vectornator:layerName="path"/>
<path d="M541.918 731.089L622.941 696.245L641.198 688.181C644.818 686.589 649.187 685.106 652.377 682.794C656.781 679.603 660.854 675.343 664.896 671.678L703.559 635.753L703.551 713.973L703.61 729.389C703.622 730.757 704.008 733.385 703.666 734.649C703.331 735.886 698.993 739.636 697.812 740.817C686.095 752.535 673.793 764.299 660.501 774.236C645.636 785.35 629.873 794.246 613.146 802.249L541.918 731.089Z" fill="#fed692" fill-rule="nonzero" opacity="1" stroke="none" vectornator:layerName="path"/>
<path d="M412.455 802.319C401.876 796.715 391.203 791.747 380.961 785.469C358.172 771.501 338.814 753.258 320.026 734.455L320.455 636.209C325.994 640.647 331.106 645.773 336.324 650.589L358.162 670.499C362.532 674.54 366.956 679.408 371.812 682.843C376.338 686.044 383.253 687.556 388.371 689.909L483.555 731.408L438.031 776.867L422.353 792.889C419.264 796.064 416.101 799.8 412.455 802.319Z" fill="#fed692" fill-rule="nonzero" opacity="1" stroke="none" vectornator:layerName="path"/>
<path d="M286.952 302.824L287.073 219.504L287.061 197.34C287.067 193.343 286.698 188.916 287.47 185C288.281 180.889 290.067 177.168 293.034 174.175C296.714 170.464 301.66 168.501 306.857 168.471C310.732 168.449 314.639 169.723 317.839 171.896C320.974 174.024 323.69 176.952 326.376 179.61L339.552 192.682L385.95 238.056L415.363 225.334C461.025 209.891 510.907 204.943 558.664 212.178C573.143 214.371 587.654 218.291 601.603 222.69C614.424 226.734 626.912 231.331 638.987 237.268L687.762 189.086L697.947 178.965C700.333 176.54 702.593 173.903 705.425 171.977C709.027 169.528 713.084 168.375 717.428 168.524C723.15 168.722 727.816 171.024 731.601 175.283C734.035 178.022 736.263 181.926 736.768 185.588C737.311 189.52 736.957 193.931 736.958 197.91L736.964 221.33L736.99 302.32L736.82 499.124L735.992 502.272C734.098 502.787 732.555 502.86 730.607 502.826L700.599 472.659L585.389 353.319L554.074 321.903L492.31 322.015L475.988 322.07C474.377 322.089 471.896 321.789 470.362 322.145C468.571 322.562 442.524 349.748 438.978 353.269L322.87 473.297L298.687 497.492C295.256 500.937 291.466 505.582 287.544 508.378C286.068 505.369 286.986 325.296 286.952 302.824Z" fill="#345054" fill-rule="nonzero" opacity="1" stroke="none" vectornator:layerName="path"/>
<path d="M603.139 319.331L703.796 219.969L703.862 262.651L703.779 263.061C702.745 268.69 703.44 275.47 703.43 281.217L703.398 319.901L629.675 319.912L611.264 319.913C608.903 319.909 605.265 320.377 603.139 319.331Z" fill="#fef4e3" fill-rule="nonzero" opacity="1" stroke="none" vectornator:layerName="path"/>
<path d="M603.139 319.331C605.265 320.377 608.903 319.909 611.264 319.913L629.675 319.912L703.398 319.901L703.43 281.217C703.44 275.47 702.745 268.69 703.779 263.061L703.862 262.651L703.545 429.655L601.428 321.675C601.605 320.551 602.356 320.119 603.139 319.331Z" fill="#fec5c4" fill-rule="nonzero" opacity="1" stroke="none" vectornator:layerName="path"/>
<path d="M320.124 248.656L320.036 219.389L421.904 318.828L424.519 320.845L320.576 430.441C319.668 423.29 320.162 415.621 320.154 408.409L320.1 369.412L320.124 248.656Z" fill="#fec5c4" fill-rule="nonzero" opacity="1" stroke="none" vectornator:layerName="path"/>
<path d="M320.124 248.656L320.036 219.389L421.904 318.828C419.622 320.281 402.359 319.442 398.714 319.462L320.739 319.777C319.664 315.929 320.518 310.05 320.525 305.918L320.535 267.927C320.523 261.806 321.108 255.113 320.199 249.103L320.124 248.656Z" fill="#fef4e3" fill-rule="nonzero" opacity="1" stroke="none" vectornator:layerName="path"/>
<path d="M385.95 238.056L415.363 225.334C461.025 209.891 510.907 204.943 558.664 212.178C573.143 214.371 587.654 218.291 601.603 222.69C614.424 226.734 626.912 231.331 638.987 237.268L600.169 275.72L590.474 285.637C589.772 286.363 587.845 288.743 587.005 289.057C585.85 289.489 582.691 289.057 581.323 289.057L560.895 289.058L437.502 289.096L385.95 238.056Z" fill="#fec5c4" fill-rule="nonzero" opacity="1" stroke="none" vectornator:layerName="path"/>
<path d="M438.978 353.269C442.524 349.748 468.571 322.562 470.362 322.145C471.896 321.789 474.377 322.089 475.988 322.07L492.31 322.015L554.074 321.903L585.389 353.319L700.599 472.659L730.607 502.826C732.432 504.619 734.403 506.957 736.481 508.405L736.463 558.316C736.44 566.972 735.85 576.199 736.871 584.796C731.576 581.469 727.186 578.071 721.25 575.838L720.063 576.659C712.071 582.053 704.721 590.155 697.606 596.762L654.169 637.467L642.357 648.709C640.567 650.413 638.8 652.524 636.782 653.941C634.901 655.262 632.178 655.687 630.044 656.543L615.058 662.982L544.666 693.124C534.301 697.487 522.788 700.92 512.856 706.109L512.387 706.359L411.492 663.445L395.658 656.545C392.723 655.34 388.73 654.232 386.135 652.494C383.33 650.615 380.755 647.735 378.242 645.46L363.572 632.085L323.181 594.365C316.878 588.404 309.576 579.689 301.745 576.076C296.335 578.188 291.847 581.405 287.29 584.93L287.544 508.378C291.466 505.582 295.256 500.937 298.687 497.492L322.87 473.297L438.978 353.269Z" fill="#fef4e3" fill-rule="nonzero" opacity="1" stroke="none" vectornator:layerName="path"/>
<path d="M589.976 438.291C596.606 437.126 602.398 438.196 607.948 442.131C612.954 445.68 617.09 452.024 618.168 458.069C619.104 463.315 618.082 468.081 616.058 472.931C614.272 475.698 612.414 478.047 609.879 480.175C604.927 484.331 599.284 486.091 592.844 485.516C586.441 484.945 580.752 481.25 576.764 476.348C572.693 471.343 570.993 464.931 571.802 458.561L571.925 457.675C572.225 455.395 572.681 453.482 573.602 451.359C576.518 444.635 581.321 441.228 587.994 438.68L589.976 438.291Z" fill="#345054" fill-rule="nonzero" opacity="1" stroke="none" vectornator:layerName="path"/>
<path d="M408.441 473.366C406.146 468.569 404.921 463.825 405.752 458.512C406.782 451.92 410.372 446.056 415.822 442.175C421.624 438.043 427.738 436.905 434.704 438.075C440.907 439.636 446.187 443.449 449.58 448.925C452.786 454.099 454.136 461.446 452.522 467.411C450.7 474.149 446.103 479.987 440.014 483.361C434.844 486.227 427.5 486.122 421.963 484.406C416.112 482.592 411.729 478.383 408.441 473.366Z" fill="#345054" fill-rule="nonzero" opacity="1" stroke="none" vectornator:layerName="path"/>
<path d="M472.856 640.329C467.507 640.328 462.56 639.963 457.426 638.363C445.809 634.741 435.572 626.513 429.95 615.703C427.739 611.454 421.905 596.101 422.894 591.818L439.092 585.7C441.835 584.664 445.277 582.725 448.124 583.783C450.402 586.087 451.568 589.628 452.902 592.546C456.379 600.147 462.64 605.917 471.409 605.983C476.53 606.021 481.452 603.225 484.975 599.642C489.362 595.181 495.09 585.469 495.249 578.997C495.282 577.648 493.766 576.284 492.901 575.274C481.962 562.503 465.028 554.478 468.242 534.874C469.04 530.006 471.206 524.926 474.476 521.202C478.089 517.088 483.104 514.552 488.492 513.852L489.339 513.737C497.111 512.784 505.669 513.431 513.522 513.427C520.798 513.424 529.641 512.483 536.714 514.007C539.975 514.71 543.053 516.5 545.646 518.56C550.266 522.231 553.432 527.29 555.067 532.925L555.315 533.751C556.447 537.753 556.191 541.945 555.139 545.925L554.953 546.663C554.225 549.448 552.869 552.279 551.17 554.609C546.297 561.29 539.546 567.095 533.792 573.05C532.725 574.154 528.828 578.007 528.674 579.366C528.615 579.88 529.179 581.522 529.323 582.104C530.167 585.514 531.264 588.498 533.019 591.54C536.515 597.602 542.345 603.689 549.239 605.604C553.283 606.728 558.15 605.926 561.659 603.675C564.863 601.619 567.605 598.488 569.458 595.177C571.062 592.31 573.127 582.657 577.421 583.675L601.362 592.846L601.218 593.3C599.778 597.954 599.019 602.789 597.615 607.461C593.949 619.657 586.588 629.038 575.333 635.112C567.414 639.385 559.416 640.629 550.487 640.198C549.537 640.371 549.931 640.366 548.944 640.268L548.242 640.186C544.527 645.277 539.456 651.31 534.175 654.853L533.453 655.319C527.063 659.508 518.711 662.211 511.036 661.713C500.333 661.018 489.264 655.741 482.249 647.577C480.623 645.685 478.718 642.02 476.863 640.675C475.85 639.94 474.048 640.282 472.856 640.329Z" fill="#345054" fill-rule="nonzero" opacity="1" stroke="none" vectornator:layerName="path"/>
<path d="M472.856 640.329C486.536 638.693 499.575 633.475 508.263 622.175L512.524 615.969C521.74 629.169 531.443 637.105 547.742 639.896L550.487 640.198C549.537 640.371 549.931 640.366 548.944 640.268L548.242 640.186C544.527 645.277 539.456 651.31 534.175 654.853L533.453 655.319C527.063 659.508 518.711 662.211 511.036 661.713C500.333 661.018 489.264 655.741 482.249 647.577C480.623 645.685 478.718 642.02 476.863 640.675C475.85 639.94 474.048 640.282 472.856 640.329Z" fill="#fec5c4" fill-rule="nonzero" opacity="1" stroke="none" vectornator:layerName="path"/>
<path d="M438.978 353.269C442.524 349.748 468.571 322.562 470.362 322.145C471.896 321.789 474.377 322.089 475.988 322.07L492.31 322.015L554.074 321.903L585.389 353.319L700.599 472.659L647.884 473.094C637.443 473.099 626.413 473.921 616.058 472.931C618.082 468.081 619.104 463.315 618.168 458.069C617.09 452.024 612.954 445.68 607.948 442.131C602.398 438.196 596.606 437.126 589.976 438.291C589.624 437.325 589.296 436.249 588.584 435.485C585.312 431.979 584.254 426.86 581.357 422.97L577.957 413.794L512.205 479.349L446.095 413.5L434.704 438.075C427.738 436.905 421.624 438.043 415.822 442.175C410.372 446.056 406.782 451.92 405.752 458.512C404.921 463.825 406.146 468.569 408.441 473.366L322.87 473.297L438.978 353.269Z" fill="#dfe7db" fill-rule="nonzero" opacity="1" stroke="none" vectornator:layerName="path"/>
<path d="M438.978 353.269C442.524 349.748 468.571 322.562 470.362 322.145C471.896 321.789 474.377 322.089 475.988 322.07L492.31 322.015L554.074 321.903L585.389 353.319L512.034 428.6C509.842 427.169 507.766 424.164 505.946 422.175L493.755 409.058L438.978 353.269Z" fill="#d8bbf7" fill-rule="nonzero" opacity="1" stroke="none" vectornator:layerName="path"/>
</g>
</svg>
